<?xml version="1.0" encoding="UTF-8" standalone="no"?>
<svg
   xmlns:dc="http://purl.org/dc/elements/1.1/"
   xmlns:cc="http://creativecommons.org/ns#"
   xmlns:rdf="http://www.w3.org/1999/02/22-rdf-syntax-ns#"
   xmlns:svg="http://www.w3.org/2000/svg"
   xmlns="http://www.w3.org/2000/svg"
   xmlns:sodipodi="http://sodipodi.sourceforge.net/DTD/sodipodi-0.dtd"
   xmlns:inkscape="http://www.inkscape.org/namespaces/inkscape"
   width="2300"
   height="2300"
   viewBox="0 0 608.54162 608.54162"
   version="1.1"
   id="svg1383"
   sodipodi:docname="icon2.svg"
   inkscape:version="1.0.2-2 (e86c870879, 2021-01-15)">
  <defs
     id="defs1377" />
  <sodipodi:namedview
     id="base"
     pagecolor="#ffffff"
     bordercolor="#666666"
     borderopacity="1.0"
     inkscape:pageopacity="0.0"
     inkscape:pageshadow="2"
     inkscape:zoom="0.24748737"
     inkscape:cx="1463.4581"
     inkscape:cy="1344.4644"
     inkscape:document-units="px"
     inkscape:current-layer="layer3"
     inkscape:document-rotation="0"
     showgrid="false"
     inkscape:window-width="1920"
     inkscape:window-height="1057"
     inkscape:window-x="1352"
     inkscape:window-y="-8"
     inkscape:window-maximized="1"
     units="px"
     fit-margin-top="0"
     fit-margin-left="0"
     fit-margin-right="0"
     fit-margin-bottom="0"
     inkscape:pagecheckerboard="true" />
  <metadata
     id="metadata1380">
    <rdf:RDF>
      <cc:Work
         rdf:about="">
        <dc:format>image/svg+xml</dc:format>
        <dc:type
           rdf:resource="http://purl.org/dc/dcmitype/StillImage" />
        <dc:title></dc:title>
      </cc:Work>
    </rdf:RDF>
  </metadata>
  <g
     inkscape:groupmode="layer"
     id="layer3"
     inkscape:label="Layer 2"
     style="display:inline"
     transform="translate(185.18683,164.81054)">
    <path
       style="fill:#ff393a;fill-opacity:1;stroke:none;stroke-width:2.84001"
       d="m 217.33599,77.798853 c -15.0695,3.568711 -29.26068,10.205686 -43.89709,15.201799 -12.17595,5.01789 -25.27373,8.331578 -36.51439,15.344868 -11.04331,7.82283 -11.94652,22.44784 -14.02566,34.62778 -2.94507,22.87315 -7.19417,45.60088 -9.38967,68.55529 -0.87756,3.91232 3.07737,8.00169 6.92169,5.80696 20.39316,-7.85217 40.34351,-16.95592 59.78224,-26.93228 11.08583,-6.53323 20.21591,-16.64714 24.69543,-28.80149 6.4532,-17.34072 8.45747,-35.94825 12.61348,-53.90443 1.34012,-9.014398 4.52487,-18.015724 4.02043,-27.178839 -0.57895,-1.683054 -2.35081,-3.104266 -4.20646,-2.719658 z"
       id="path2053" />
    <path
       style="fill:#ff393a;fill-opacity:1;stroke:none;stroke-width:2.84001"
       d="m 315.01035,41.449652 c -17.1622,3.845925 -33.32335,11.254121 -49.86803,17.108802 -9.25424,3.800271 -20.04285,6.162926 -26.1923,14.813944 -7.85939,10.531303 -8.63959,24.353324 -11.93725,36.660732 -2.68112,13.73072 -7.47846,29.49634 0.29972,42.45884 4.63569,8.11101 15.23547,9.30078 23.28688,6.22036 21.30617,-6.94027 37.33672,-24.51954 48.63639,-43.23103 11.01952,-19.422718 16.45724,-41.425462 21.03945,-63.103907 0.81947,-4.402095 1.4365,-11.757956 -5.26486,-10.927741 z"
       id="path2055" />
    <path
       style="fill:#ff393a;fill-opacity:1;stroke:none;stroke-width:2.84001"
       d="m 392.53681,9.9240753 c -18.03966,5.0706467 -35.43684,12.3266837 -52.75279,19.4539627 -8.54924,3.704865 -9.65443,14.348256 -12.36837,22.136705 -4.86968,18.414796 -10.58277,36.677153 -14.15936,55.394177 -0.39682,5.57896 -1.40724,13.3259 4.01159,16.79189 7.06914,1.69617 13.89673,-2.81887 20.38302,-4.98391 10.83527,-5.13265 22.60484,-8.82393 32.40074,-15.8727 6.47645,-6.533398 7.15955,-16.515447 10.42128,-24.723005 5.70894,-19.886157 12.6183,-39.482587 17.0824,-59.697085 1.16599,-3.811644 -0.62791,-8.350963 -5.01851,-8.5000347 z"
       id="path2057" />
    <path
       style="fill:#ff393a;fill-opacity:1;stroke:none;stroke-width:2.84001"
       d="m 361.7908,116.27712 c -10.88097,2.59973 -20.82152,8.38465 -30.4064,14.02203 -17.49054,12.31351 -29.17547,31.28763 -37.3281,50.72411 -4.22696,11.52549 -8.64243,24.80671 -4.02191,36.86892 2.68275,6.35454 10.70446,8.24301 16.60438,5.33005 11.2359,-4.76992 22.62764,-10.30507 31.57725,-18.75116 7.17672,-9.48082 8.95766,-21.76718 12.90072,-32.73521 4.72905,-16.73383 11.00473,-33.0728 14.7388,-50.06372 0.79462,-3.0547 -0.52353,-5.9356 -4.06474,-5.39502 z"
       id="path2059" />
    <path
       style="fill:#ff393a;fill-opacity:1;stroke:none;stroke-width:2.84001"
       d="m 276.17623,162.39464 c -10.96144,1.29845 -20.49286,7.75608 -30.34498,12.27351 -17.28799,8.24335 -31.29926,23.37478 -36.83289,41.85682 -4.53607,15.13553 -9.0359,30.66916 -9.33866,46.56785 -0.27293,4.78034 2.52528,10.37797 7.96259,10.25407 10.29751,-0.0161 19.0268,-6.73227 27.92546,-11.08257 15.97638,-8.02405 29.76181,-20.85652 36.96914,-37.41412 6.9914,-15.6583 11.37724,-32.53269 13.39077,-49.5394 0.45855,-5.88526 -2.2453,-14.24738 -9.73143,-12.91616 z"
       id="path2061" />
    <path
       style="fill:#ff393a;fill-opacity:1;stroke:none;stroke-width:2.84001"
       d="m 172.13387,211.55517 c -12.17171,0.75599 -22.69361,7.96686 -33.70484,12.49389 -10.61347,4.80851 -22.94201,10.8895 -26.30478,23.09788 -5.23082,21.21464 -7.71935,43.01467 -11.32483,64.54736 -0.51879,7.02352 -3.050113,14.48292 -0.903293,21.40384 3.172523,4.43595 9.207053,0.79131 12.948633,-0.77664 22.88494,-11.3507 46.26313,-24.67226 60.57381,-46.61003 10.84352,-15.85407 19.44571,-34.48489 19.27071,-54.03645 0.0963,-9.29624 -6.00788,-19.6384 -16.15405,-19.97073 -1.46161,-0.15691 -2.93289,-0.18251 -4.40136,-0.14912 z"
       id="path2063" />
    <path
       style="fill:#ff393a;fill-opacity:1;stroke:none;stroke-width:2.84001"
       d="m 167.32502,315.73189 c -9.91769,0.71758 -18.06975,7.46197 -26.7168,11.70271 -13.0242,7.92739 -27.13298,14.38169 -38.99053,24.05591 -6.65645,6.77077 -6.00448,17.15919 -8.36944,25.7538 -2.63602,15.62934 -6.00564,31.2343 -7.07148,47.06274 -0.4943,3.40878 2.86328,6.46374 6.12883,4.76308 14.54373,-6.6603 27.48214,-16.37792 41.1498,-24.62564 8.78811,-6.08121 18.50223,-11.02448 26.55666,-18.07829 6.39941,-8.35417 6.73976,-19.5579 9.55699,-29.35706 2.15348,-11.8682 6.17889,-23.86391 4.95375,-36.03871 -0.42383,-3.66379 -3.73936,-5.55403 -7.19778,-5.23854 z"
       id="path2065" />
    <path
       style="fill:#ff393a;fill-opacity:1;stroke:none;stroke-width:2.84001"
       d="m 245.5085,269.22902 c -14.12398,1.25365 -25.63666,11.10242 -35.57967,20.42289 -16.33007,16.03362 -28.26447,36.72925 -32.33349,59.37438 -1.00573,6.94947 -4.23211,13.95738 -3.25857,21.04263 1.09699,2.56432 4.45009,4.85555 6.91726,2.44949 19.08825,-11.33867 37.86392,-23.27715 56.12651,-35.90923 6.49838,-4.14551 11.62979,-10.38111 13.18684,-18.05535 3.27787,-12.32651 7.82791,-24.78571 7.41138,-37.70204 -0.38058,-6.52991 -5.74428,-12.13696 -12.47026,-11.62277 z"
       id="path2067" />
    <path
       style="fill:#ff393a;fill-opacity:1;stroke:none;stroke-width:2.84001"
       d="m 332.06504,216.18095 c -8.76077,2.09602 -16.06917,8.09468 -23.96913,12.19992 -14.79129,8.23304 -29.88151,18.72948 -36.10554,35.22409 -6.78588,17.21252 -11.15878,35.29716 -15.44378,53.2594 -0.9371,2.52558 0.49957,6.47097 3.76942,5.12334 10.25778,-4.10739 19.03282,-11.25495 28.49455,-16.8802 8.29784,-6.13368 18.31645,-10.65012 24.66131,-19.02458 7.77606,-13.62813 10.61072,-29.40511 15.6114,-44.1406 1.95808,-8.06092 5.69606,-15.96468 5.92587,-24.31738 -0.25971,-1.34569 -1.85555,-1.40524 -2.9441,-1.44399 z"
       id="path2069" />
    <path
       style="fill:#ff393a;fill-opacity:1;stroke:none;stroke-width:4.01638"
       d="m 216.85585,77.803431 c -22.16246,6.295263 -43.50742,15.473541 -65.09812,23.552729 -11.25454,3.46126 -22.85987,10.6437 -25.40393,23.02316 -5.19606,29.01206 -9.82835,58.20494 -12.71618,87.53911 -1.19662,4.3522 3.76814,7.42899 7.4042,5.14077 21.84277,-8.31977 43.34249,-17.92875 63.66652,-29.48526 15.69594,-10.58465 23.18701,-29.12839 26.05834,-47.20295 3.78231,-19.2836 8.82388,-38.47227 10.82067,-58.023976 0.12373,-2.746226 -1.82454,-5.086 -4.7315,-4.543583 z"
       id="path2100" />
    <path
       style="fill:#ff393a;fill-opacity:1;stroke:none;stroke-width:4.01638"
       d="M 315.37391,41.060138 C 292.51587,47.681407 270.10042,56.089619 248.212,65.433864 235.08672,71.8234 231.96254,87.238171 229.15611,100.1341 c -2.7447,15.87688 -9.2123,32.72858 -3.8061,48.7296 2.92986,8.16741 11.75086,12.659 20.13083,10.91421 20.41562,-3.90313 36.42894,-19.63394 48.33403,-35.81829 14.96896,-21.11737 21.47247,-46.788745 26.43671,-71.809887 0.54296,-4.000167 1.30496,-11.580715 -4.87767,-11.089595 z"
       id="path2102" />
    <path
       style="fill:#ff393a;fill-opacity:1;stroke:none;stroke-width:4.01638"
       d="m 392.16795,10.167538 c -17.45295,4.747918 -34.45444,11.534259 -51.10067,18.652491 -10.75351,4.227827 -11.47553,17.60294 -15.00568,26.948114 -4.80375,19.717059 -11.91303,39.219129 -13.15993,59.588737 -0.9003,6.37336 5.95299,10.75221 11.54269,8.29997 15.74038,-5.65646 31.67438,-11.79617 45.72605,-20.98274 6.25796,-5.719998 6.34336,-15.399625 9.73008,-22.777084 6.00343,-20.715036 13.81602,-41.09707 17.53143,-62.381664 0.59854,-3.618179 -0.68107,-8.1371087 -5.26397,-7.347824 z"
       id="path2104" />
    <path
       style="fill:#ff393a;fill-opacity:1;stroke:none;stroke-width:4.01638"
       d="m 361.60945,115.89142 c -12.8819,4.45394 -25.26456,11.05755 -36.30895,19.05774 -17.48703,15.78319 -29.90602,37.1831 -35.73272,59.9392 -0.50689,8.16383 -2.12691,17.1598 1.2215,24.86859 4.15165,5.5201 12.12146,6.23809 17.75256,2.52862 11.97306,-6.19361 26.82243,-10.9992 33.59452,-23.58445 8.61414,-25.64081 17.32047,-51.3662 24.0793,-77.54783 0.55428,-2.98589 -1.42973,-5.65152 -4.60621,-5.26187 z"
       id="path2106" />
    <path
       style="fill:#ff393a;fill-opacity:1;stroke:none;stroke-width:4.01638"
       d="m 276.54258,162.0685 c -13.47244,2.58184 -25.3891,10.32652 -37.4776,16.49343 -19.83941,10.99949 -30.69969,32.69355 -34.75648,54.27854 -2.17915,11.72899 -6.79534,24.12874 -3.46794,36.02935 3.97518,7.64958 14.4056,3.92655 20.34722,1.03521 18.70897,-9.32161 38.67782,-20.016 48.42875,-39.54917 8.85761,-17.23007 14.39251,-36.37581 16.21454,-55.6501 0.52802,-5.82268 -2.43811,-13.07321 -9.28849,-12.63726 z"
       id="path2108" />
    <path
       style="fill:#ff393a;fill-opacity:1;stroke:none;stroke-width:4.01638"
       d="m 172.38471,211.36511 c -14.98333,1.97188 -28.1212,10.53515 -41.64394,16.72231 -8.97582,3.63929 -16.6834,10.70555 -18.736,20.47409 -6.25426,24.93288 -9.67467,50.55169 -12.697393,76.05279 -0.74115,3.99079 -0.60348,12.08265 5.591783,10.4757 15.1778,-5.20115 29.16311,-13.73989 42.46022,-22.64132 23.96856,-17.64843 41.55742,-45.1617 45.03922,-74.93919 1.30414,-10.15486 -2.25756,-23.41013 -13.75185,-25.65787 -2.04367,-0.49627 -4.16671,-0.61917 -6.26204,-0.48651 z"
       id="path2110" />
    <path
       style="fill:#ff393a;fill-opacity:1;stroke:none;stroke-width:4.01638"
       d="m 166.46511,315.81111 c -13.93267,2.80067 -25.56088,12.11101 -38.02461,18.47921 -9.98807,6.73283 -22.56272,11.05337 -29.805473,21.11428 -5.722977,12.23947 -5.463387,26.35843 -8.522427,39.37812 -1.2871,11.05882 -4.7638,22.31052 -3.41492,33.46117 3.62694,3.36701 9.19288,-0.992 12.851907,-2.52653 20.367113,-12.33496 40.804443,-24.76881 59.837053,-39.09444 8.16727,-9.02062 7.75961,-22.40132 11.01119,-33.51742 1.55334,-11.19547 6.33364,-22.83229 3.61347,-34.13728 -1.26113,-2.8798 -4.78658,-3.27654 -7.54619,-3.15711 z"
       id="path2112" />
    <path
       style="fill:#ff393a;fill-opacity:1;stroke:none;stroke-width:4.01638"
       d="m 245.24489,269.42523 c -17.59822,1.7203 -30.96284,15.42804 -42.36222,27.72505 -17.56593,19.4831 -25.71682,45.59144 -28.81917,71.15842 -0.17271,3.85135 4.7458,7.52189 7.82598,3.95475 20.83012,-12.71616 41.9049,-25.3498 61.28179,-40.19097 9.1188,-10.04343 9.8287,-24.66898 13.61457,-37.11885 2.24198,-8.10297 3.33509,-20.72113 -6.00346,-24.76418 -1.76883,-0.63531 -3.66947,-0.80412 -5.53749,-0.76422 z"
       id="path2114" />
    <path
       style="fill:#ff393a;fill-opacity:1;stroke:none;stroke-width:4.01638"
       d="m 331.97802,216.41817 c -14.02286,4.29816 -25.95792,13.65341 -38.55079,20.94627 -15.52075,10.07792 -23.2844,27.70054 -27.9086,44.94171 -3.37133,12.63256 -8.28927,25.27906 -8.95864,38.39099 2.04129,4.44654 7.52039,-0.49257 10.28987,-1.65372 15.58605,-10.27949 32.48504,-19.16817 46.04972,-32.13709 7.30528,-9.35228 8.40621,-21.91374 12.57419,-32.75096 3.17394,-12.08397 7.99894,-24.12841 9.61335,-36.43217 -0.541,-1.17346 -1.93866,-1.47312 -3.1091,-1.30503 z"
       id="path2116" />
    <path
       style="fill:#007eec;fill-opacity:1;stroke:none;stroke-width:4.01638"
       d="m 15.463219,49.024038 c -6.3555928,2.223645 -3.919979,10.98854 -5.403558,16.00206 -1.6396638,23.008926 -4.7012553,46.154212 -3.2325878,69.231852 1.620063,19.23849 15.6534388,34.16416 30.6031848,44.90932 13.236813,9.64114 25.253656,21.36776 39.836949,28.96565 6.033312,2.17434 6.035358,-6.61256 6.730593,-10.19173 3.95359,-25.94987 7.96033,-51.94011 11.0136,-77.99886 C 96.12607,108.39755 89.75838,97.352962 79.894184,91.551622 59.109956,76.693075 38.320972,61.548151 15.98523,49.111737 c -0.166992,-0.05345 -0.344257,-0.102336 -0.522011,-0.0877 z"
       id="path2134" />
    <path
       style="fill:#007eec;fill-opacity:1;stroke:none;stroke-width:4.01638"
       d="m 20.787729,191.23648 c -12.6012918,0.3819 -19.79723934,14.10444 -20.56304834,25.33214 -3.78521906,28.48573 7.11662154,57.86816 25.53984534,79.45062 11.183674,10.83845 22.436213,21.95309 35.289028,30.79806 3.856519,3.04554 9.852054,0.77816 9.847212,-4.40161 4.670147,-25.81931 8.406781,-51.88945 10.709571,-78.02599 1.427766,-11.63833 -6.583495,-21.27153 -15.40746,-27.69346 -11.622584,-8.37424 -21.906819,-19.59475 -35.611786,-24.53476 -3.197196,-0.77774 -6.521587,-0.9868 -9.803362,-0.925 z"
       id="path2136" />
    <path
       style="fill:#007eec;fill-opacity:1;stroke:none;stroke-width:4.01638"
       d="m 2.5215287,295.92053 c -7.070275,0.61775 -7.990933,9.93423 -9.3439935,15.38679 -1.1728529,16.62737 -4.2569702,33.33178 -3.4577992,50.00445 3.1174183,10.64728 13.9938567,16.38146 20.944994,24.33158 14.033033,12.45545 26.682501,26.73157 42.03665,37.56427 4.234487,3.29306 8.136173,-2.60741 8.011121,-6.52838 3.363735,-20.92944 6.913673,-41.95791 8.396724,-63.10159 C 67.695014,341.93866 55.525408,336.17013 48.243135,328.39747 35.731582,318.19866 24.342111,306.25653 10.581776,297.76639 8.0528732,296.64919 5.3092457,295.84462 2.5215287,295.92053 Z"
       id="path2138" />
    <path
       style="fill:#007eec;fill-opacity:1;stroke:none;stroke-width:4.01638"
       d="m -54.037297,259.50714 c -7.084129,0.74969 -8.289769,9.80834 -6.072958,15.26715 3.946771,15.28159 7.413681,32.53594 20.948176,42.50483 7.251309,5.72215 14.178202,11.99626 21.364859,17.68364 2.755476,1.67854 6.839173,0.48347 6.109615,-3.42231 1.102284,-11.34586 1.7160562,-22.75011 2.3219039,-34.12071 -10.4611139,-14.1205 -22.7750289,-27.6234 -38.1589889,-36.39877 -2.064025,-0.84117 -4.24988,-1.62113 -6.512607,-1.51383 z"
       id="path2140" />
    <path
       style="fill:#007eec;fill-opacity:1;stroke:none;stroke-width:4.01638"
       d="m -81.160978,163.62002 c -6.891454,2.4246 -4.171135,11.57977 -2.912483,16.78356 5.451374,24.84979 15.328775,49.69099 34.448278,67.24357 10.332646,9.22859 20.082391,19.8203 32.456464,26.30299 3.033049,1.38128 8.0857376,0.60343 7.2392458,-3.80442 -0.1409448,-15.84102 -4.5512338,-31.51843 -9.8513878,-46.36083 -9.950447,-24.42346 -32.271244,-40.46905 -52.334714,-56.17671 -2.744624,-1.72301 -5.63757,-4.08137 -9.045403,-3.98816 z"
       id="path2142" />
    <path
       style="fill:#007eec;fill-opacity:1;stroke:none;stroke-width:4.01638"
       d="m -114.25019,52.076758 c -5.20605,0.438221 -1.70656,7.030011 -1.37603,9.964142 6.24075,23.467803 12.16466,47.61523 26.059567,67.9635 10.45932,17.05921 24.106822,32.93267 41.549185,43.07863 5.528378,3.53314 14.160814,2.40798 16.14266,-4.59161 2.59879,-14.25498 -2.920132,-28.53849 -5.525979,-42.43246 -2.424488,-12.73515 -8.740542,-24.86295 -19.701124,-32.257408 -17.417145,-13.840825 -34.53131,-28.228713 -52.911639,-40.751765 -1.32241,-0.598691 -2.7691,-1.052047 -4.23664,-0.973029 z"
       id="path2144" />
    <path
       style="fill:#007eec;fill-opacity:1;stroke:none;stroke-width:4.01638"
       d="m -183.19738,-3.56124 c -4.14849,0.3507819 -0.51676,6.1796563 -0.54707,8.5400963 7.15943,23.6684917 12.29207,48.0350957 21.0955,71.1625997 11.66445,13.2768 25.95068,24.188374 39.72293,35.231544 3.02359,2.53515 10.24574,6.74302 12.1211,0.86027 1.24035,-11.8884 -4.3226,-23.386983 -6.30381,-34.964271 -3.84299,-12.928693 -5.73605,-26.673648 -11.41951,-38.94827 -10.41474,-12.776828 -25.03424,-21.356605 -37.59313,-31.8489217 -5.45631,-3.228711 -10.42891,-9.5589521 -17.07601,-10.0330473 z"
       id="path2146" />
    <path
       style="fill:#007eec;fill-opacity:1;stroke:none;stroke-width:4.01638"
       d="m -153.8729,98.005352 c -4.71944,0.37552 -1.33801,6.654688 -0.82687,9.275088 7.01673,21.55423 10.73582,44.34051 20.32084,64.97781 6.91325,11.11462 18.46128,18.33174 27.97089,27.05145 4.04531,3.86892 13.092691,7.84156 16.608829,1.32715 3.323153,-12.00339 -2.772603,-24.26379 -6.901979,-35.31291 -11.45909,-26.55887 -29.75921,-50.50046 -53.97074,-66.587768 -0.98406,-0.50708 -2.0811,-0.8595 -3.20097,-0.73082 z"
       id="path2148" />
    <path
       style="fill:#007eec;fill-opacity:1;stroke:none;stroke-width:4.01638"
       d="m -128.0292,191.89838 c -3.78424,2.0947 -0.10097,7.79934 0.0514,11.03234 4.82431,16.3263 9.2514,33.04487 16.80743,48.33908 13.817386,13.43545 28.1987,26.41911 42.429034,39.35335 2.088306,1.64547 9.00586,2.60352 7.069275,-1.91432 -6.444634,-23.6079 -11.042052,-49.88627 -29.695148,-67.44856 -10.951201,-10.26146 -21.632901,-21.41036 -34.670031,-28.99648 -0.63304,-0.23276 -1.3088,-0.44248 -1.992,-0.36541 z"
       id="path2150" />
    <path
       style="fill:#feef00;fill-opacity:1;stroke:none;stroke-width:4.01638"
       d="m -85.136613,-78.818492 c -13.056891,2.2933 -24.366347,10.343076 -36.450007,15.437456 -16.10613,8.232743 -32.85413,15.538836 -48.34543,24.805399 -4.25904,5.445188 2.37388,11.404713 6.75148,13.98514 14.99644,10.96736 29.42196,22.9866595 45.39949,32.4696453 9.16139,2.3167067 17.57761,-4.662976 25.710244,-7.79365511 18.41895,-9.92156339 38.356121,-17.59409519 55.105378,-30.30686919 6.646662,-4.709097 5.866342,-14.77246 -0.52619,-19.364513 -12.776379,-11.019459 -27.251218,-20.120747 -41.948782,-28.330567 -1.793359,-0.775896 -3.756117,-1.001863 -5.696183,-0.902036 z"
       id="path2152" />
    <path
       style="fill:#feef00;fill-opacity:1;stroke:none;stroke-width:4.01638"
       d="m 21.301388,-127.14626 c -17.4798053,5.01357 -33.528857,14.22481 -50.359371,21.0492 -11.542598,5.81721 -24.49554,9.582216 -34.701244,17.692362 -3.965138,5.266465 3.150235,10.686153 7.136932,13.269513 15.462266,11.360256 33.837135,21.094091 53.6689746,19.0701 22.8073384,-0.08511 46.6049904,-6.734836 63.2504834,-22.956244 9.200507,-8.742863 5.815142,-24.927621 -4.917868,-30.856751 -9.25548,-7.49428 -20.442428,-12.47715 -31.382244,-17.00091 -0.870309,-0.2644 -1.789832,-0.36708 -2.695663,-0.26727 z"
       id="path2154" />
    <path
       style="fill:#feef00;fill-opacity:1;stroke:none;stroke-width:4.01638"
       d="m 106.63971,-164.78324 c -17.00143,2.15729 -31.641461,12.37848 -47.261707,18.7125 -7.30087,4.18731 -16.259066,6.39888 -22.466405,12.09449 -2.906014,4.50456 1.729446,8.18606 5.637717,9.47346 14.536688,7.42987 28.702852,16.04079 44.080675,21.5674 14.58885,2.63887 30.02902,0.7042 42.97172,-6.77736 13.49058,-6.68793 27.70662,-12.31084 40.33077,-20.53843 4.07468,-2.82767 1.34319,-8.45164 -2.82304,-9.43378 -17.42795,-8.46428 -34.44695,-18.28661 -52.89848,-24.33823 -2.47378,-0.59257 -5.02641,-0.88146 -7.57125,-0.76005 z"
       id="path2156" />
    <path
       style="fill:#feef00;fill-opacity:1;stroke:none;stroke-width:4.01638"
       d="m 184.56339,-128.57657 c -14.20589,1.89124 -26.26011,10.81453 -38.62879,17.4289 -10.14489,5.1389 -19.0101,17.818875 -12.68696,29.071832 8.59174,14.147773 26.27468,18.670198 41.47063,21.790818 22.67752,2.864395 46.8922,-0.595283 66.26511,-13.343225 6.95193,-4.73396 15.77738,-7.850839 20.9629,-14.642817 2.29143,-6.63898 -6.84364,-9.588114 -11.1606,-11.770298 -19.99061,-9.21301 -39.51859,-19.6043 -59.96024,-27.75219 -2.03219,-0.57092 -4.14914,-0.86925 -6.26205,-0.78302 z"
       id="path2158" />
    <path
       style="fill:#feef00;fill-opacity:1;stroke:none;stroke-width:4.01638"
       d="m 303.58395,-56.144431 c -16.54369,2.902331 -32.86639,7.808582 -48.55536,13.78735 -5.35631,2.090579 -4.79492,9.057902 -0.40926,11.870523 14.07909,10.174199 30.47013,16.766553 45.70347,25.0387658 10.26559,4.2768544 21.10017,13.5929465 32.85955,8.8157885 16.82814,-5.4928319 34.15922,-10.0690366 50.23374,-17.5051753 3.66324,-3.013457 -1.03301,-7.772183 -4.37891,-8.413211 -22.43881,-11.108514 -44.62443,-22.957902 -67.78595,-32.483201 -2.46981,-0.79343 -5.06572,-1.266777 -7.66728,-1.11084 z"
       id="path2160" />
    <path
       style="fill:#feef00;fill-opacity:1;stroke:none;stroke-width:4.01638"
       d="m 208.23763,-26.231125 c -14.02314,0.570184 -30.35977,1.619005 -40.45584,12.647277 -6.71078,9.4290928 2.36727,20.6343883 10.4778,25.593145 14.14239,9.053728 28.33439,18.658489 44.07442,24.678583 18.26136,3.101906 35.18205,-7.254068 52.24179,-11.955191 C 284.77871,20.567038 296.10952,18.417135 305.62605,12.8821 309.39853,8.3920973 303.12786,3.7846693 299.38072,2.2038463 276.12181,-9.9901532 252.23133,-22.99048 225.5663,-25.299857 c -5.75016,-0.661125 -11.5402,-0.989112 -17.32867,-0.931268 z"
       id="path2162" />
    <path
       style="fill:#feef00;fill-opacity:1;stroke:none;stroke-width:4.01638"
       d="M 102.97937,-0.89480901 C 81.903231,5.5304943 60.175098,10.130111 39.498683,17.707567 c -3.90438,3.123883 1.190085,7.864122 4.073774,9.492246 22.433068,15.56309 44.984673,31.14952 68.533753,44.955568 18.56004,4.929325 36.53134,-5.473769 53.92217,-10.434465 13.84854,-5.382181 28.75569,-8.62625 41.91274,-15.530351 2.02602,-4.718442 -5.05676,-7.181959 -7.78305,-9.570178 C 179.67245,24.197851 159.61086,10.608947 137.57198,1.0700392 126.5322,-2.5303804 114.36652,-0.15185581 102.97937,-0.89480901 Z"
       id="path2164" />
    <path
       style="fill:#feef00;fill-opacity:1;stroke:none;stroke-width:4.01638"
       d="m -15.28948,-16.857899 c -18.555447,-0.950982 -36.095118,6.109865 -52.095435,14.7952153 -9.951233,5.88816 -21.515083,10.078148 -29.712007,18.4255507 -4.579088,5.612587 3.19255,10.733412 6.992855,13.983625 18.803313,13.685038 36.908724,28.564816 56.805213,40.629144 C -19.079496,76.303624 -5.4638143,66.06145 6.2048367,59.355676 6.8508272,46.724766 5.0242327,30.222953 16.908146,22.000584 25.370391,16.372097 36.74023,16.661484 44.902543,10.917251 43.313316,1.6740523 33.845466,-3.6400806 26.598751,-8.3407709 13.885221,-16.133605 -0.66085134,-17.797123 -15.28948,-16.857899 Z"
       id="path2166" />
    <path
       style="fill:#feef00;fill-opacity:1;stroke:none;stroke-width:4.01638"
       d="m 95.14921,-76.037218 c -20.051327,-0.724175 -37.474973,10.5978 -54.460796,19.674218 -8.367827,4.90343 -20.492517,11.642841 -18.760613,23.130665 2.64986,10.241171 14.173841,14.349659 21.885966,20.137026 C 56.704243,-5.3875455 71.230535,5.2295513 87.11651,0.74848019 106.27746,-3.4289505 125.17814,-9.744694 141.32149,-21.163277 c 6.07242,-4.694118 14.91847,-8.647466 16.84903,-16.700335 1.85847,-9.498626 -7.80122,-15.06302 -14.24045,-19.934549 -14.69807,-9.162005 -30.74064,-19.214864 -48.78086,-18.239057 z"
       id="path2168" />
  </g>
  <g
     inkscape:groupmode="layer"
     id="layer6"
     inkscape:label="Layer 4"
     style="display:inline"
     transform="translate(185.18683,164.81054)">
    <path
       style="fill:#000000;fill-opacity:1;stroke:none;stroke-width:1.42"
       d="m -132.87509,235.82211 c -4.20131,0.18613 -8.56521,-0.20411 -12.66635,0.3554 -2.05015,1.19094 -4.83758,2.69852 -4.40016,5.53423 -0.5591,25.35666 -0.28881,50.72695 -0.4122,76.08911 0.2272,6.23994 -0.40654,12.60764 0.7695,18.76595 0.82584,1.72971 3.17954,2.00824 4.84504,2.47234 3.33986,0.13322 7.97092,0.30356 9.63618,-3.27776 0.93882,-5.49603 0.30212,-11.1688 0.51813,-16.72916 0.003,-8.37231 8e-4,-16.74463 0.002,-25.11694 6.06323,-0.0167 13.16761,-0.60114 17.84166,4.10826 4.80522,4.67302 6.96047,11.31157 9.37284,17.39561 2.6953,6.62062 4.79667,13.50923 7.881179,19.9576 2.323904,4.38592 8.187526,4.35216 12.340333,3.09986 2.8702,-0.6378 3.58144,-3.89472 3.090249,-6.40199 -1.216721,-6.26438 -4.356788,-11.97774 -6.52122,-17.94589 -3.601019,-8.16578 -6.142728,-17.13061 -11.957531,-24.08698 -0.44952,-0.64265 -1.67269,-1.42031 -1.63888,-2.09288 7.090757,-3.42842 12.631896,-10.40463 13.893578,-18.22998 0.583647,-6.80504 0.693983,-14.17757 -3.180318,-20.13313 -4.476404,-8.28536 -13.95302,-12.37593 -22.97017,-13.15535 -5.4581,-0.59385 -10.95913,-0.62795 -16.44344,-0.6083 z m 4.90261,15.00388 c 6.26242,0.0895 13.45323,-0.14161 18.23293,4.65088 2.7406,2.46718 2.8522,6.57915 3.1028,10.00972 -0.10377,3.45353 -1.04448,7.09848 -3.98327,9.24711 -5.04858,4.81941 -12.58208,4.56951 -19.08066,4.50104 -2.09959,-0.28393 -5.93406,1.16702 -4.88269,-2.26785 0,-8.71363 0,-17.42727 0,-26.1409 2.20363,0 4.40726,0 6.61089,0 z"
       id="path2171" />
    <path
       style="fill:#000000;fill-opacity:1;stroke:none;stroke-width:1.42"
       d="m -19.443109,260.94128 c -2.860562,-0.22056 -6.267318,0.77156 -7.741867,3.37374 -0.701138,14.61193 -0.223062,29.26495 -0.370594,43.89249 0.388033,2.55109 -0.152768,4.71459 -2.417919,6.1586 -3.886102,3.6943 -8.129658,8.89868 -14.092703,8.27683 -6.017895,-0.51496 -9.500777,-7.1233 -9.234024,-12.65174 -0.526121,-14.92959 -0.01767,-29.88834 -0.715166,-44.80875 -0.460407,-3.40604 -4.632934,-4.26427 -7.49382,-4.20647 -3.352805,0.0767 -7.74224,-0.69433 -10.116032,2.29517 -1.386091,4.52909 -0.63823,9.43116 -0.904287,14.10545 0.173895,13.28552 -0.433459,26.60777 0.51893,39.86911 0.925515,8.33146 5.65876,16.48092 13.408556,20.14053 5.690799,3.22799 12.514152,2.79238 18.788076,2.22282 4.808006,-1.34986 9.299421,-3.73346 13.392317,-6.57178 -0.271744,3.8426 3.966256,6.50317 7.491605,5.99742 3.365331,-0.0423 8.119829,0.46844 9.814092,-3.24379 1.1836852,-3.7184 0.4738309,-7.78698 0.7418802,-11.63826 -0.038606,-19.09773 0.251445,-38.20395 -0.1874647,-57.29663 0.2200426,-3.23199 -2.6458595,-5.86999 -5.8121215,-5.77078 -1.683861,-0.16829 -3.379436,-0.14494 -5.069458,-0.14396 z"
       id="path2173" />
    <path
       style="fill:#000000;fill-opacity:1;stroke:none;stroke-width:1.42"
       d="m 15.442173,228.83546 c -2.326151,-0.0251 -5.097843,0.2053 -6.7637068,1.98732 -1.402892,4.39467 -0.737175,9.18306 -1.026668,13.73558 -0.04507,29.21834 -0.199276,58.44049 0.122818,87.65705 -0.150525,2.37955 0.275707,5.41126 2.9480218,6.20212 3.299662,0.83243 6.925582,0.91657 10.234886,0.11962 2.094927,-0.69959 3.976045,-2.85806 4.1068,-4.84727 5.008826,3.21876 10.492663,6.64919 16.701822,6.25287 5.701374,0.29689 11.615285,-0.34145 16.561559,-3.42098 10.355432,-5.57782 15.603403,-17.40229 16.56611,-28.69661 0.959596,-10.41961 0.708785,-21.40026 -3.510449,-31.13997 -4.167452,-9.80469 -14.155047,-16.84235 -24.883443,-16.91645 -7.254809,-0.49182 -14.141847,2.49476 -20.065435,6.42434 -0.18005,-10.85592 0.379845,-21.74443 -0.340894,-32.58087 -0.07958,-3.53935 -4.1971,-4.95118 -7.182456,-4.77454 -1.156231,-0.0162 -2.312692,-0.0101 -3.468965,-0.002 z m 27.471929,48.51531 c 3.451489,-0.27281 6.441299,1.6977 8.358825,4.44733 3.576312,4.90247 4.084124,11.29906 4.513773,17.14751 0.0131,6.92246 -0.925071,14.6258 -5.669642,20.01724 -2.086304,2.48155 -5.175877,4.0001 -8.451311,3.69192 -5.022828,-0.0734 -8.818768,-4.12584 -12.264294,-7.3115 -1.415987,-1.63097 -3.654154,-2.95526 -2.966965,-5.4238 0,-7.24553 0,-14.49107 0,-21.73658 3.740834,-4.25733 7.876861,-8.86433 13.436609,-10.57301 0.992039,-0.20246 2.020716,-0.26929 3.043005,-0.25911 z"
       id="path2175" />
    <path
       style="fill:#000000;fill-opacity:1;stroke:none;stroke-width:2.84001"
       d="m 94.76121,261.27038 c -3.58312,-0.3912 -7.97288,1.63071 -7.18008,5.87192 -0.50614,22.9416 -0.64796,45.96495 0.25839,68.87877 3.76385,3.98314 10.156157,2.62877 14.98321,1.9268 4.92857,-1.19351 2.17514,-7.21855 2.86583,-10.86829 -0.31183,-20.92642 0.6756,-41.92042 -0.69395,-62.80606 -1.00877,-3.89743 -7.358633,-2.53306 -10.2334,-3.00314 z"
       id="path2177" />
    <path
       style="fill:#000000;fill-opacity:1;stroke:none;stroke-width:2.84001"
       d="m 95.69729,234.03247 c -4.94803,-0.48772 -10.20922,2.92166 -9.88054,8.30809 -0.61264,5.00455 1.19606,12.07043 7.32329,12.19712 4.840237,0.40889 12.20174,0.58617 13.51708,-5.4467 1.25237,-5.22317 1.06495,-13.60818 -5.68293,-14.67167 -1.732003,-0.36281 -3.513113,-0.41684 -5.2769,-0.38684 z"
       id="path2179" />
    <path
       style="fill:#000000;fill-opacity:1;stroke:none;stroke-width:2.84001"
       d="m 122.68272,261.25119 c -3.83709,-0.85055 -8.98163,2.36612 -6.93498,6.67806 4.91734,11.09649 12.88733,20.64959 18.31265,31.42223 -6.24699,11.449 -14.30475,21.94611 -20.29702,33.47599 -0.63205,4.43119 4.26798,6.14955 7.85777,5.76709 4.30279,0.009 10.09483,0.63027 12.03698,-4.31408 4.59441,-6.29616 7.90048,-13.68938 12.90945,-19.5693 5.65919,7.26853 9.21009,16.14469 15.40696,22.95615 4.80218,1.65695 10.41313,1.31662 15.28736,0.031 4.32468,-2.05883 1.64883,-7.64633 -0.34697,-10.41649 -5.69396,-9.52418 -11.76781,-18.81542 -17.64676,-28.22567 6.36184,-10.8853 14.46772,-20.91753 19.36537,-32.58272 1.37803,-4.65527 -5.29636,-5.30135 -8.39521,-5.17503 -3.78392,-0.005 -8.64923,-0.31759 -10.4283,3.90379 -4.51604,5.7369 -7.79683,13.17029 -12.52489,18.30379 -5.73986,-6.65654 -8.71923,-15.6147 -15.24603,-21.5225 -3.04007,-0.77087 -6.24104,-0.74116 -9.35638,-0.73232 z"
       id="path2181" />
    <path
       style="fill:#000000;fill-opacity:1;stroke:none;stroke-width:2.84001"
       d="m 193.74667,236.33872 c -3.70205,2.59973 -5.50615,6.014 -4.46632,10.5789 0.2764,29.15143 -0.637,58.36593 0.76334,87.47787 2.71424,5.40772 9.89328,3.50153 14.74107,4.09721 14.34359,-0.42259 29.93876,1.18483 42.74231,-6.66332 15.0357,-8.26553 21.43728,-26.09027 21.59214,-42.44803 1.13904,-15.20883 -2.98616,-31.7775 -14.87568,-42.08133 -9.2672,-8.47445 -22.15382,-11.32869 -34.41034,-10.92566 -8.6917,-0.10045 -17.41028,-0.11281 -26.08652,-0.0356 z m 22.71696,16.91148 c 9.94337,-0.45949 20.68157,2.2518 26.76396,10.71769 6.98508,9.68951 6.25893,22.64126 4.92846,33.93812 -1.23799,10.34074 -8.40189,20.21748 -19.06418,22.11605 -6.75428,1.46642 -13.73382,0.74697 -20.59379,0.93607 0,-22.57227 0,-45.14453 0,-67.71679 2.65518,0.003 5.31037,0.006 7.96555,0.009 z"
       id="path2183" />
    <path
       style="fill:#000000;fill-opacity:1;stroke:none;stroke-width:2.84001"
       d="m 310.52211,260.02129 c -13.68507,-0.11646 -26.28206,9.35894 -30.71645,22.17953 -4.64786,12.57025 -3.46321,26.85357 0.83124,39.34791 4.8184,12.35004 18.71895,18.00802 31.14318,18.34216 9.59127,-0.61897 20.48716,-0.69644 28.32901,-6.99844 2.10839,-3.74854 1.99382,-9.11447 -0.0783,-12.85121 -3.81942,-3.28213 -9.1444,0.72882 -13.22472,1.49273 -7.23636,1.6129 -15.24458,2.18601 -22.33457,-0.29382 -5.42483,-2.81872 -7.74295,-9.69815 -7.72784,-15.33462 14.42455,-0.90852 28.92774,-0.2898 43.35949,-0.55073 3.53166,-2.33807 5.09148,-6.24237 4.46416,-10.36923 0.52819,-12.92297 -5.37422,-27.24528 -18.13333,-32.17523 -5.01073,-2.09628 -10.50377,-2.89158 -15.91191,-2.78905 z m 1.43513,16.14373 c 7.41204,-0.4521 13.72846,6.57563 13.39305,13.79907 -9.49664,0 -18.9933,0 -28.48994,0 0.63416,-7.75075 7.37487,-13.82699 15.09689,-13.79907 z"
       id="path2185" />
    <path
       style="fill:#000000;fill-opacity:1;stroke:none;stroke-width:2.84001"
       d="m 405.60381,261.2379 c -6.48486,-0.55265 -7.9148,7.22417 -9.78162,11.77043 -4.48394,12.49373 -8.17501,25.63574 -13.17601,37.74887 -6.46388,-15.35282 -10.29671,-31.80755 -17.09309,-47.03588 -2.84265,-3.55578 -8.39713,-2.08144 -12.36543,-2.41993 -4.01,-0.51349 -6.94971,3.66418 -5.51461,7.32181 7.00773,22.10573 15.43942,43.77216 23.17041,65.64379 2.51291,6.02567 10.47031,3.88416 15.53081,4.10315 3.18222,0.33391 6.49507,-1.10087 7.0622,-4.55231 8.06902,-20.60474 15.60423,-41.44957 22.61039,-62.43807 1.46492,-3.44445 1.66524,-9.29255 -3.16997,-9.91596 -2.40387,-0.34711 -4.85225,-0.19327 -7.27308,-0.2259 z"
       id="path2187" />
    <path
       style="fill:#000000;fill-opacity:1;stroke:none;stroke-width:1.42"
       d="m -17.452576,359.14689 c -6.222012,-0.19748 -12.403959,2.37848 -16.45156,7.14759 -6.927265,7.22265 -7.839263,18.00423 -6.866466,27.48336 0.739362,5.56008 2.476182,11.27691 6.712913,15.20137 3.913769,4.20674 9.554287,6.89972 15.377424,6.40172 6.083304,0.22918 12.7287017,-0.74681 17.1794647,-5.30323 2.41220196,-1.20007 1.20975396,-4.01402 1.45432396,-6.14653 0.460874,-2.37636 -1.91630596,-4.60455 -4.22565596,-3.69044 -3.1616462,1.27564 -5.8571417,3.60704 -9.3335027,4.15036 -5.215604,1.41187 -11.459569,-1.0419 -13.403391,-6.31486 -3.273215,-7.87747 -2.856155,-17.58714 2.073703,-24.691 3.52902,-3.93104 9.575922,-4.78887 14.196992,-2.36677 2.80688,0.97927 5.4637187,4.35689 8.6868077,2.98246 2.89509696,-1.64378 1.50601596,-5.58504 1.78652696,-8.21656 -4.04851696,-5.30881 -10.83868566,-6.81318 -17.18757966,-6.63747 z"
       id="path2189" />
    <path
       style="fill:#000000;fill-opacity:1;stroke:none;stroke-width:1.00409"
       d="m 21.128262,372.36434 c -2.472343,0.0307 -5.019896,0.86082 -6.735505,2.70663 -1.189871,-1.45848 -2.87929,-2.49166 -4.8202478,-2.3078 -1.811002,0.01 -4.0874555,-0.2191 -5.1884535,1.57319 -1.622684,1.25899 -0.563334,3.54171 -0.864261,5.29804 0.02825,11.03487 -0.05643,22.09118 0.04228,33.11271 1.064777,1.39819 2.539611,2.76098 4.4537955,2.41065 1.59338,-0.12378 3.4148358,0.22055 4.8585508,-0.34801 0.900255,-1.10355 2.700043,-1.84417 2.188072,-3.55036 0,-7.39987 0,-14.79971 0,-22.19958 1.563202,-2.26118 3.174624,-5.2307 6.106482,-5.8084 2.074245,0.35455 4.724862,2.02137 6.525658,0.10335 1.809197,-1.05709 0.88201,-3.23604 1.099876,-4.93144 -0.141354,-1.52968 0.582843,-3.45664 -1.120757,-4.31755 -1.69502,-1.64369 -4.335903,-1.66555 -6.545493,-1.74143 z"
       id="path2191" />
    <path
       style="fill:#000000;fill-opacity:1;stroke:none;stroke-width:1.00409"
       d="m 47.116048,372.20776 c -2.405129,0.28869 -4.863518,0.60817 -7.177128,1.30294 -1.24932,0.82817 -2.85624,1.23783 -3.945879,2.38559 -2.649,2.34759 -5.181065,4.98811 -6.364877,8.40332 -1.739191,4.28361 -0.903806,9.04685 -1.107858,13.54199 -0.175324,2.92491 0.712993,5.87983 2.006237,8.41012 1.692116,3.10841 4.44673,5.6805 7.526353,7.41098 2.795635,1.65055 6.158855,1.45264 9.254728,2.06507 3.07757,0.0441 6.117469,-0.68093 9.159724,-1.0769 1.218155,-0.50858 2.644791,-0.66622 3.748559,-1.36975 1.362181,-0.70197 2.549027,-1.87066 3.489642,-3.10179 -0.170524,-1.75477 0.328351,-3.75764 -0.23165,-5.36953 -0.904052,-1.16052 -2.181162,-2.24801 -3.760166,-1.84518 -2.842011,0.33263 -5.225264,2.14461 -8.098443,2.22578 -1.632942,0.38343 -3.229928,0.59219 -4.869871,0.11075 -2.805435,-0.25558 -5.683776,-2.03639 -6.196269,-4.992 -0.103534,-0.95302 -0.902589,-1.65322 -0.630587,-2.67792 7.409297,-0.11684 14.851933,0.25855 22.241836,-0.28813 1.175099,-0.66723 2.441072,-1.70056 2.932517,-2.89965 -0.279001,-4.38738 0.359156,-9.1027 -1.905437,-13.0977 -1.940716,-3.79431 -5.449001,-6.96052 -9.579234,-8.15779 -2.151671,-0.36589 -4.297696,-0.96589 -6.492197,-0.9802 z m 0.07621,9.9845 c 2.456362,0.10605 5.199152,1.30829 5.939959,3.854 0.14006,0.58716 0.859311,1.51572 0.492257,1.9993 -4.3415,0.3755 -8.78991,0.0882 -13.171376,0.18113 0.11344,-1.90965 1.272053,-3.86773 2.902903,-4.88497 1.174623,-0.65109 2.510303,-1.09792 3.836257,-1.14946 z"
       id="path2193" />
    <path
       style="fill:#000000;fill-opacity:1;stroke:none;stroke-width:1.00409"
       d="m 84.28687,372.23959 c -5.050258,0.54499 -10.670497,1.39605 -14.226159,5.42348 -1.3374,1.08151 -0.343101,3.13039 -0.655182,4.62992 -0.366742,1.68812 1.342443,2.76032 2.555621,3.6191 2.223693,0.79693 4.167843,-1.3153 6.170607,-1.91402 3.209642,-1.49185 7.316793,-2.52458 10.494593,-0.39587 1.00012,1.41245 1.34621,3.11978 1.52479,4.81293 -3.23335,0.23606 -6.576512,-0.037 -9.746988,0.63529 -2.021202,0.42849 -3.999002,1.01671 -5.897676,1.8474 -0.48192,0.14952 -0.577959,0.76753 -1.177658,0.84775 -2.389666,2.01872 -5.059246,4.41225 -5.308327,7.75081 -0.592302,4.2187 -0.261382,9.1925 3.23438,12.14562 2.18589,2.37567 5.302819,3.62093 8.487894,3.78981 2.540725,0.86717 5.159375,-0.17386 7.701065,-0.55816 1.35143,-0.13849 2.32018,-1.1697 3.5561,-1.63637 1.01604,1.36101 2.56689,2.10621 4.26743,1.98834 2.207437,0.33581 4.600017,-0.34602 5.8648,-2.28692 -0.15095,-9.93058 0.10841,-19.87558 -0.36906,-29.7969 -0.46051,-4.45858 -4.07775,-8.06871 -8.07656,-9.70995 -2.70369,-0.75694 -5.59561,-1.11844 -8.39967,-1.19226 z m 3.06107,25.9262 c 1.70309,-0.13168 3.47167,-0.32882 2.76718,1.9471 0.35228,1.51744 -0.28175,2.59209 -1.5877,3.31075 -1.30648,1.04177 -2.78233,1.69175 -4.3272,2.1594 -0.82421,0.62119 -1.912573,0.15851 -2.706109,-0.2699 -1.531654,-0.0236 -2.377212,-1.51688 -2.243079,-2.9029 -0.380521,-1.94517 1.338709,-3.375 3.055329,-3.74071 1.637874,-0.45347 3.352919,-0.49159 5.041579,-0.50374 z"
       id="path2195" />
    <path
       style="fill:#000000;fill-opacity:1;stroke:none;stroke-width:1.00409"
       d="m 114.28579,363.41187 c -1.96407,0.0326 -4.3743,0.7448 -5.19453,2.62311 0,2.31912 0,4.63822 0,6.95735 -1.7514,0.0691 -3.98431,-0.45278 -5.15695,1.26378 -1.66794,1.58909 -1.31726,4.16687 -1.1124,6.2302 0.56192,1.02801 1.415,2.24388 2.43916,2.70055 1.19461,0.44381 4.14587,-0.82259 3.70985,1.20872 0.20025,7.82431 -0.0762,15.68132 0.52333,23.48534 0.6914,1.67513 1.5935,3.26149 2.97598,4.49035 1.46964,1.83481 3.66286,2.74442 5.95327,2.97593 2.1589,0.57295 4.39667,0.48326 6.5243,-0.11787 1.69835,0.0262 3.21574,-0.74922 4.23635,-2.10627 1.80994,-1.06537 0.83162,-3.29055 1.07151,-4.99679 0.35951,-1.40018 -0.36568,-2.41287 -1.40055,-3.24795 -1.17138,-1.03505 -2.96546,-0.67707 -4.22881,-0.0214 -1.39212,0.5411 -3.52934,0.66617 -4.04924,-1.13591 -0.66973,-4.46042 -0.26022,-9.03142 -0.44732,-13.53301 -0.0211,-2.32976 -0.0421,-4.65952 -0.0632,-6.98931 4.44875,0 8.8975,0 13.34625,0 0.0303,9.9142 -0.0548,19.85055 0.048,29.75096 0.97963,1.34091 2.38868,2.36604 4.12545,2.23473 2.29158,0.072 5.11894,0.35763 6.62591,-1.78787 1.06595,-1.14395 0.19291,-3.08105 0.47604,-4.53993 -0.0936,-11.01749 0.21431,-22.04953 -0.25682,-33.05792 -0.47884,-1.20875 -1.65868,-2.50476 -2.93317,-2.67634 -7.13294,-0.0484 -14.26587,-0.0972 -21.3988,-0.14618 -0.0321,-2.39496 0.0635,-4.81534 -0.0465,-7.19487 -1.3702,-1.76405 -3.6029,-2.43491 -5.76717,-2.36939 z"
       id="path2197" />
    <path
       style="fill:#000000;fill-opacity:1;stroke:none;stroke-width:1.00409"
       d="m 138.29202,358.32904 c -2.57643,-0.14494 -5.38575,1.74747 -5.32638,4.5122 -0.053,2.21438 -0.58629,5.02963 1.46506,6.56593 1.90122,2.12654 4.94816,1.20348 7.41918,1.26489 1.42903,-0.41409 2.26083,-2.12084 3.46005,-3.0272 0.0748,-2.08608 0.0797,-4.23847 -5.3e-4,-6.32418 -1.33534,-1.34545 -2.69595,-3.10409 -4.82531,-2.92039 -0.72796,-0.0715 -1.46095,-0.0998 -2.19208,-0.0713 z"
       id="path2199" />
    <path
       style="fill:#000000;fill-opacity:1;stroke:none;stroke-width:1.00409"
       d="m 169.26239,372.24115 c -2.56022,0.26755 -5.20465,0.53411 -7.65006,1.33427 -4.92723,2.01924 -8.93775,6.22202 -10.84686,11.17782 -1.74961,6.10301 -1.6487,12.72527 -0.0691,18.85384 1.2477,4.29636 4.59262,7.76041 8.3315,10.05721 2.20764,1.09032 4.62057,1.67516 7.09674,1.68452 2.06448,0.56605 4.21871,0.45265 6.31218,-0.007 3.83422,-0.33737 7.66198,-1.84023 10.2366,-4.78168 2.00425,-1.76917 3.69579,-3.854 4.65162,-6.37614 1.34123,-2.25328 1.17442,-4.98248 1.85316,-7.44932 0.25341,-3.02435 0.26422,-6.09777 -0.53632,-9.03711 -0.15817,-2.40104 -1.10361,-4.64936 -2.20162,-6.76362 -1.96037,-2.76582 -4.44634,-5.39507 -7.52584,-6.87282 -2.95166,-1.26135 -6.2329,-1.56393 -9.41185,-1.82076 z m 0.12372,10.30137 c 2.61213,0.19769 5.72344,1.13837 6.61765,3.92194 1.99516,3.35436 1.52668,7.48147 1.22087,11.18452 -0.3529,3.18791 -2.21605,6.66591 -5.6064,7.33322 -2.4731,0.42272 -5.33669,0.54774 -7.39376,-1.13382 -1.74097,-1.33453 -2.19221,-3.63416 -2.94153,-5.55419 -0.16173,-2.95767 -0.41192,-6.04763 0.21559,-8.95458 0.7228,-2.37964 1.79548,-4.98703 4.3186,-5.94466 1.13209,-0.47715 2.34917,-0.77647 3.56898,-0.85243 z"
       id="path2201" />
    <path
       style="fill:#000000;fill-opacity:1;stroke:none;stroke-width:1.00409"
       d="m 213.49916,372.24377 c -3.05142,0.24244 -6.03454,1.13866 -8.56672,2.89245 -0.40236,0.28448 -0.74053,0.34526 -0.73499,-0.21246 -0.98076,-1.98488 -3.295,-2.28362 -5.26866,-2.16633 -1.85984,-0.13512 -3.77635,0.41058 -4.87879,2.01766 -0.55132,1.88317 -0.0748,4.15097 -0.2343,6.18001 0.0324,10.67162 -0.0648,21.36965 0.0485,32.02482 1.14291,1.30008 2.66658,2.5291 4.52374,2.18371 1.56882,-0.12089 3.35021,0.20428 4.77179,-0.34459 1.02099,-1.01664 2.44913,-1.88582 1.93136,-3.55706 0,-7.85434 0,-15.70868 0,-23.56305 2.29108,-2.2769 5.01844,-5.44216 8.64867,-4.65632 2.47454,0.21272 3.26518,3.14118 3.53236,5.20506 0.78516,8.30168 0.36774,16.71238 0.67766,25.03345 1.07594,1.32527 2.32262,2.3001 4.11762,1.85626 1.56169,-0.17047 3.39147,0.34391 4.7917,-0.244 1.1345,-1.03542 2.22131,-2.11468 1.75171,-3.79113 -0.12314,-9.30516 0.30054,-18.63868 -0.415,-27.92444 -0.74434,-3.83823 -3.63589,-6.86123 -6.69792,-9.11014 -2.39257,-1.32971 -5.31505,-1.62036 -7.99877,-1.8239 z"
       id="path2203" />
    <path
       style="fill:#000000;fill-opacity:1;stroke:none;stroke-width:1.00409"
       d="m 248.67694,372.24533 c -2.32232,0.29898 -4.76375,0.50358 -6.95527,1.30085 -0.3718,0.50075 -1.32937,0.4576 -1.7978,1.00645 -2.51794,1.72458 -4.9135,4.04826 -5.65756,7.09829 -0.65698,1.60817 -0.23528,3.54793 -0.32208,5.27127 -0.0746,1.35893 0.60506,2.47348 1.00957,3.71671 2.47218,4.18018 6.92677,6.66858 11.41132,8.14618 1.54839,0.90101 3.66882,1.22745 4.74283,2.76542 0.56136,1.54302 -0.34134,3.55574 -2.12824,3.62537 -1.24062,-0.065 -2.47255,1.28765 -3.63372,0.36539 -2.82875,-0.39608 -5.23285,-2.02102 -7.87349,-2.97701 -1.94114,-0.82206 -3.88879,0.88162 -4.31285,2.67216 -0.65825,1.54033 -0.24833,3.44511 0.17853,5.02645 0.92984,2.03205 2.86512,3.47895 5.00243,4.03357 1.55633,0.92877 3.64477,0.63968 5.38871,1.11292 3.32528,0.87326 6.70223,-0.25289 9.99442,-0.73602 3.50578,-1.56006 6.58933,-4.36745 8.23211,-7.87662 0.79382,-2.59649 0.41256,-5.41046 0.35653,-8.08961 -0.69495,-2.9101 -3.15426,-5.03174 -5.35061,-6.88689 -2.98498,-1.93469 -6.46112,-2.79905 -9.58098,-4.3974 -1.35977,-0.54795 -3.04498,-1.92622 -2.28641,-3.57317 1.25239,-1.66656 3.80244,-2.04089 5.68044,-1.38433 2.33243,0.39008 4.18306,2.21411 6.5628,2.35265 2.83996,-0.0154 4.02967,-3.46713 3.52566,-5.85174 -0.38133,-3.89704 -4.59312,-5.79551 -8.03781,-6.20794 -1.3713,-0.23561 -2.74983,-0.5384 -4.14853,-0.51295 z"
       id="path2205" />
  </g>
  <g
     inkscape:groupmode="layer"
     id="layer2"
     inkscape:label="Layer 6"
     transform="translate(185.18683,164.81054)">
    <path
       style="fill:#00a239;fill-opacity:1;stroke-width:2.00818"
       d="m -135.22933,239.55862 c -3.35957,0.41219 -7.24288,-0.72305 -10.3379,0.92918 -1.88714,2.43167 -0.71531,6.05386 -1.1977,8.90004 -0.14036,28.50271 -0.23071,57.12835 0.0169,85.55468 2.86139,0.61566 6.15014,0.98811 8.74159,-0.58986 0,-14.59683 0,-29.19365 0,-43.79045 6.14979,0.59939 12.6945,-0.67926 18.58567,1.39795 9.36645,4.22289 12.50439,14.95232 16.01634,23.72956 2.64947,6.28758 4.44449,13.04504 8.000334,18.8968 2.338295,1.44934 6.440344,1.51223 8.137104,-0.88847 -1.706528,-6.75687 -4.899901,-13.19972 -7.322767,-19.77064 -3.547684,-8.16454 -5.929581,-17.31645 -12.837281,-23.44873 -0.99437,-1.18004 -2.51702,-2.19064 -3.84723,-2.50147 3.51649,-2.70172 8.14594,-3.92232 11.18669,-7.37915 4.671414,-4.2613 6.919356,-10.58701 6.388864,-16.84528 0.393805,-8.06948 -3.478006,-16.50196 -10.963764,-20.12456 -9.23468,-5.37464 -20.38655,-3.71161 -30.56686,-4.0696 z m 7.88445,7.91369 c 7.30616,0.13481 16.23125,-0.13915 21.00885,6.43013 5.32195,7.69362 4.49177,20.40422 -4.16773,25.40522 -8.27731,4.96226 -18.32951,3.12208 -27.50267,3.54446 0,-11.87228 0,-23.74454 0,-35.6168 3.55385,0.079 7.1077,0.15799 10.66155,0.23699 z"
       id="path918" />
    <path
       style="fill:#ffffff;fill-opacity:1;stroke-width:2.00818"
       d="m -20.752361,264.62037 c -3.511148,0.075 -2.854683,4.82124 -3.121624,7.17034 -0.162174,13.91444 -0.0045,27.83173 -0.05847,41.74728 -5.528691,5.50299 -11.351176,13.198 -20.033732,12.70993 -7.357652,-0.12399 -12.598902,-7.31195 -12.839377,-14.28221 -1.166262,-14.82077 0.246468,-29.76409 -0.898903,-44.5787 -0.0379,-2.76833 -3.086949,-3.17178 -5.21802,-2.71549 -2.120236,-0.0267 -5.604513,-0.70353 -5.964494,2.28848 -1.16259,10.6684 -0.04921,21.47099 -0.216397,32.18794 0.64557,9.34739 -1.224905,19.9281 4.590809,28.05816 3.878204,6.04539 10.955623,9.31016 18.022982,9.16152 8.065349,0.42468 15.28231,-3.99341 20.872081,-9.42753 3.408723,-4.53848 2.805058,-0.0321 2.763615,3.29282 0.07697,1.86201 -0.396522,5.40597 2.553587,4.93929 2.488643,-0.13017 5.716693,0.6303 7.766475,-1.00226 1.191108,-8.41076 0.389972,-17.03965 0.674219,-25.52841 -0.18927,-14.02759 0.430635,-28.09975 -0.484207,-42.10018 -0.694863,-2.69084 -4.555014,-1.51556 -6.525134,-1.8855 -0.62754,-0.0175 -1.255371,-0.0597 -1.883415,-0.0355 z"
       id="path920" />
    <path
       style="fill:#0052a2;fill-opacity:1;stroke-width:2.00818"
       d="m 16.024343,232.34652 c -1.81211,0.10761 -5.172946,-0.11539 -4.810851,2.65182 -0.732441,26.21389 -0.07825,52.45605 -0.190479,78.68049 0.104828,7.00617 -0.13192,14.1341 0.183171,21.06533 3.190598,0.93377 6.718352,0.95893 9.812758,-0.14512 0.313088,-2.85472 -0.218379,-6.74674 0.773621,-9.07672 5.917676,5.9064 13.520711,11.8232 22.418722,10.83985 9.028022,0.24103 17.642644,-4.85214 22.064948,-12.6669 6.467978,-11.23344 6.498153,-25.00315 4.325673,-37.44193 -1.842696,-10.01996 -8.608862,-20.03266 -19.131986,-22.11323 -9.443038,-2.31231 -19.336433,1.43361 -26.191155,8.01255 -3.687146,4.57859 -2.049262,-2.3055 -2.388936,-4.93268 -0.265081,-11.12066 0.547693,-22.3278 -0.510526,-33.40034 -0.978747,-2.06956 -4.579566,-1.19576 -6.35496,-1.47312 z m 26.257143,41.47585 c 5.900708,-0.50289 11.248477,3.35595 13.592116,8.64031 4.192183,8.42571 3.54619,18.29133 2.50461,27.34712 -1.557716,6.16419 -4.721498,13.25478 -11.081245,15.61542 -5.105051,1.16988 -10.888033,0.91712 -15.018253,-2.7155 -3.476894,-2.5387 -6.348538,-5.77551 -9.388885,-8.79589 0,-9.08333 0,-18.16666 0,-27.24999 4.476422,-5.10622 9.446472,-10.81662 16.257506,-12.60134 1.039315,-0.17859 2.076886,-0.23854 3.134151,-0.24013 z"
       id="path922" />
    <path
       style="fill:#ef7c00;fill-opacity:1;stroke-width:2.00818"
       d="m 94.86677,264.58487 c -1.81352,-0.37833 -3.90738,0.35136 -3.85036,2.51399 -1.13748,14.15939 -0.29018,28.41606 -0.55664,42.61175 0.2687,8.02034 -0.54142,16.17266 0.7571,24.11272 1.23739,2.53741 4.93263,1.1996 7.157807,1.41883 1.37485,-0.29485 4.346623,0.37791 3.805463,-2.00348 0.50943,-21.68054 0.51545,-43.38597 0.10127,-65.0676 0.22574,-1.7784 -0.60308,-3.58781 -2.669573,-3.36383 -1.57072,-0.21672 -3.161457,-0.25391 -4.745067,-0.22238 z"
       id="path924" />
    <path
       style="fill:#ef7c00;fill-opacity:1;stroke-width:2.00818"
       d="m 95.70511,237.42464 c -2.65436,-0.2767 -5.886,0.78627 -6.16807,3.85662 -1.35331,3.78287 -0.28982,9.84549 4.61562,10.06124 3.397297,0.20398 8.86751,0.22476 9.4035,-4.22516 0.71848,-3.45506 0.3865,-9.37278 -4.214723,-9.63214 -1.20965,-0.0875 -2.42447,-0.0692 -3.636327,-0.0606 z"
       id="path926" />
    <path
       style="fill:#ffe100;fill-opacity:1;stroke-width:2.00818"
       d="m 169.19902,264.69136 c -2.2792,0.16695 -5.3439,-0.35457 -6.3842,2.32399 -5.53926,7.66194 -9.82961,16.40692 -15.53713,23.80263 -5.86221,-8.25812 -10.17783,-17.64892 -16.5018,-25.55972 -3.59295,-1.00931 -7.59024,-0.31999 -11.18356,-0.17227 -1.06755,4.26069 3.03373,7.48056 4.61826,11.03426 4.65605,7.89813 10.26259,15.41378 14.16682,23.6638 -6.5454,11.19034 -14.4649,21.59889 -20.35946,33.1529 -1.10008,1.91238 1.33647,2.57495 2.79484,2.3689 2.91671,-0.184 6.46881,0.40769 8.97441,-1.2758 5.94118,-8.66989 10.59182,-18.19447 16.68033,-26.74469 6.24169,8.87539 11.08056,18.7407 17.28274,27.63941 3.97362,0.22733 8.78148,1.46404 12.32363,-0.88845 -0.53333,-2.9809 -3.08464,-5.62329 -4.39847,-8.41586 -5.25395,-8.97155 -11.29942,-17.62932 -16.17502,-26.73218 6.11331,-11.18299 13.92369,-21.47591 19.72679,-32.79376 -0.88508,-2.211 -4.23358,-1.0737 -6.02818,-1.40316 z"
       id="path928" />
    <path
       style="fill:#e40026;fill-opacity:1;stroke-width:2.00818"
       d="m 195.22543,239.60143 c -2.49046,1.66506 -3.19272,4.09909 -2.66956,7.01165 0.0314,28.57589 -0.0626,57.17687 0.047,85.73713 1.66505,2.49058 4.09908,3.19262 7.01165,2.66896 13.17886,-0.41749 26.90956,1.27825 39.59556,-3.16799 10.15904,-3.59262 18.80446,-11.44204 22.51012,-21.66014 4.74368,-11.24484 4.61432,-23.76808 3.36806,-35.69007 -2.04843,-13.64587 -11.08316,-26.32908 -24.11692,-31.38119 -12.9761,-5.20599 -27.26158,-3.05631 -40.86718,-3.56533 -1.62213,0.0329 -3.2726,-0.0647 -4.87871,0.047 z m 20.07236,10.435 c 9.12738,-0.045 19.45984,0.24198 26.2571,7.25739 7.55981,6.21607 10.61227,16.05825 11.14706,25.50819 0.46882,11.9068 -0.95472,25.35264 -10.05497,34.03301 -5.94468,5.68748 -14.32057,7.74274 -22.37881,7.47906 -5.0326,0.14409 -10.06709,0.21156 -15.10052,0.32083 0,-24.86896 0,-49.73788 0,-74.60684 3.37671,0.003 6.75342,0.006 10.13014,0.008 z"
       id="path930" />
    <path
       style="fill:#e40026;fill-opacity:1;stroke-width:2.00818"
       d="m 311.67141,263.55128 c -10.69985,-0.23896 -21.52441,5.33383 -26.49516,15.00573 -3.97664,6.83604 -5.09529,14.83296 -4.6327,22.62915 -0.39359,9.96069 1.84976,20.86507 9.7127,27.68015 9.13302,8.10935 22.2695,8.74128 33.72599,6.52611 4.60332,-1.13578 10.20355,-1.37353 13.65191,-4.9987 0.96383,-2.46737 0.95814,-5.57371 0.0898,-8.05984 -2.2582,-0.8427 -4.85953,1.10773 -7.11187,1.55141 -9.10431,3.10923 -19.84388,4.50355 -28.67927,-0.14824 -7.25853,-4.27289 -9.19681,-13.4887 -9.10074,-21.29179 15.29521,-0.131 30.61573,-0.13872 45.8952,-0.34661 3.80752,-2.59585 2.11204,-7.69702 2.25716,-11.52077 -0.51432,-10.44231 -6.28732,-21.27938 -16.5613,-24.91873 -4.04834,-1.57222 -8.426,-2.15531 -12.7517,-2.10787 z m -0.17224,9.42334 c 6.08208,-0.44363 12.26113,2.49391 15.1289,8.00034 1.9163,3.86789 2.67753,8.27341 2.76876,12.56794 -12.22238,0 -24.44472,0 -36.6671,0 0.25337,-8.2555 4.62111,-17.02588 12.80703,-19.81658 1.93505,-0.57861 3.95242,-0.73585 5.96241,-0.7517 z"
       id="path932" />
    <path
       style="fill:#e40026;fill-opacity:1;stroke-width:2.00818"
       d="m 407.57734,264.36145 c -2.3041,0.20778 -5.72506,-0.0364 -6.08248,3.04229 -6.54405,18.23127 -12.30559,36.75038 -18.87278,54.9698 -6.63133,-18.36446 -12.48482,-37.09397 -19.24757,-55.43335 -1.06751,-3.08415 -5.13045,-2.25507 -7.66625,-2.56622 -1.92241,-0.004 -5.40274,0.0718 -4.62084,2.94936 1.03053,6.96605 4.63733,13.27118 6.59299,20.00398 5.63259,15.22873 10.57246,30.73106 16.69077,45.77043 1.1303,3.34097 5.31664,1.86364 7.92408,2.23208 2.90859,-0.18892 7.59632,0.61624 8.29586,-3.34084 7.34163,-18.83831 13.72338,-38.04441 20.74365,-57.00149 0.59306,-3.101 3.11118,-6.52373 1.74664,-9.67076 -1.5335,-1.04393 -3.72697,-0.91217 -5.50407,-0.95528 z"
       id="path934" />
    <path
       style="fill:#007deb;fill-opacity:1;stroke-width:1.00409"
       d="m -17.475083,361.47438 c -7.083458,0.0306 -13.926732,4.05318 -17.33601,10.27351 -3.57518,6.13 -4.368411,13.53944 -3.623768,20.49224 0.21694,2.57924 0.683035,5.10815 1.574906,7.53002 1.871318,5.31193 5.836311,9.99365 11.233674,11.91228 4.047197,1.60176 8.582268,1.76284 12.820063,1.0247 1.627849,-0.55933 3.4371085,-0.6029 4.9183857,-1.54411 1.94213,-0.78382 4.0222299,-1.88227 5.1856539,-3.67183 0.224747,-1.44407 0.488465,-3.15201 -0.160778,-4.49241 -1.5512679,-0.63254 -2.8364459,1.15361 -4.1514604,1.69026 -5.3125912,3.18249 -12.6879932,3.8595 -17.8805272,0.16338 -4.122248,-2.97146 -6.065345,-8.15049 -6.468758,-13.01528 -0.03627,-5.06407 -0.603787,-10.37394 1.605182,-15.10334 1.526495,-4.05617 4.585267,-7.78809 8.90655,-8.96816 1.98403,-1.03065 4.382903,-0.47664 6.536097,-0.52982 3.690049,0.29614 6.8400501,2.47779 9.9213367,4.34625 0.8096869,0.57566 1.7945679,-0.0964 1.5728189,-1.07534 0.06141,-1.75223 0.538214,-3.95891 -1.196972,-5.10736 -3.7568416,-2.89994 -8.8025446,-3.86593 -13.4563936,-3.92499 z"
       id="path936" />
    <path
       style="fill:#007deb;fill-opacity:1;stroke-width:1.00409"
       d="m 21.426206,374.90572 c -3.883011,-0.0974 -6.734379,2.94804 -8.930039,5.76873 -0.384412,0.5347 -0.833206,0.74324 -0.700539,-0.16441 -0.179162,-1.56789 0.07227,-3.21477 -0.168609,-4.7357 -1.7056778,-1.00465 -3.9615328,-0.90707 -5.5688103,0.16235 0.04549,12.06714 0.09125,24.13431 0.137289,36.20146 1.6960935,0.89418 3.8026455,1.03118 5.6013953,0.206 1.554478,-0.52633 0.349869,-3.00858 0.72955,-4.34451 0,-6.60083 0,-13.20165 0,-19.80248 2.115472,-3.08313 4.46597,-7.11094 8.618921,-7.45328 1.585294,-0.0119 3.177934,1.1449 4.717411,0.6854 1.032825,-1.41115 0.636503,-3.46413 0.273012,-5.05253 -0.939956,-1.50046 -3.177729,-1.41298 -4.709581,-1.47103 z"
       id="path938" />
    <path
       style="fill:#007deb;fill-opacity:1;stroke-width:1.00409"
       d="m 46.71554,374.93339 c -6.224736,-0.17039 -12.173821,4.01177 -14.337781,9.81808 -1.451285,3.29189 -1.713807,7.02307 -1.684904,10.58159 0.253018,4.03518 0.742656,8.28434 3.352961,11.56565 2.103895,3.07491 5.480518,5.02168 9.09656,5.71603 4.51879,1.21346 9.312535,0.28919 13.762294,-0.82373 1.475846,-0.79653 4.036624,-0.98803 4.22724,-3.05742 -0.167111,-0.9821 0.32943,-2.42133 -0.523052,-3.13623 -2.0066,-0.41516 -3.645572,1.35374 -5.590736,1.59107 -4.593206,1.11024 -10.103921,1.59382 -14.052348,-1.48942 -3.061364,-2.44639 -3.473268,-6.71161 -3.89908,-10.34873 7.76723,-0.11713 15.555616,0.25532 23.309868,-0.25318 1.303075,0.0645 2.309185,-0.99856 2.121977,-2.29267 0.04303,-4.23095 -0.118171,-8.79885 -2.802157,-12.31058 -1.918026,-2.65319 -4.80644,-4.42153 -7.950745,-5.21385 -1.597978,-0.48845 -3.376033,-0.28038 -5.030097,-0.34661 z m 0.452062,4.92204 c 3.247593,-0.27283 6.617604,1.35248 7.962754,4.41307 0.970134,1.87336 1.271027,4.00764 1.302938,6.08822 -6.448748,0.0458 -12.897495,0.0918 -19.346243,0.1378 0.5555,-3.49211 1.589807,-7.37402 4.876099,-9.29982 1.505696,-1.0936 3.391074,-1.35197 5.204452,-1.33927 z"
       id="path940" />
    <path
       style="fill:#007deb;fill-opacity:1;stroke-width:1.00409"
       d="m 84.84269,374.86134 c -4.047015,0.13433 -8.194965,1.08326 -11.667465,3.2062 -1.443826,1.13591 -1.913448,3.71737 -0.568471,5.06508 1.743276,0.54221 3.186414,-1.27254 4.780648,-1.68352 3.153812,-1.59975 6.779438,-1.69138 10.201588,-1.22984 2.48096,0.70792 4.4869,2.88113 4.61727,5.46815 0.25174,1.75561 0.16798,3.55957 0.18366,5.33643 -6.11004,0.005 -12.817187,-0.36121 -18.146141,3.16862 -1.67821,1.3584 -3.115347,3.03144 -3.697922,5.14596 -0.617398,1.87966 -0.293487,4.01699 -0.193668,5.97705 0.790411,2.21435 1.884358,4.47693 4.029221,5.69592 3.275811,2.1073 7.508669,2.59993 11.23124,1.65346 2.82868,-0.73181 5.44851,-2.42668 7.43761,-4.45119 0.43927,1.28693 -0.29835,2.99209 0.63372,4.06855 1.4917,0.8237 3.475257,0.66061 4.924647,-0.0553 -0.14902,-9.57771 0.0819,-19.16891 -0.34087,-28.73828 -0.6675,-4.07035 -4.108617,-7.44402 -8.184607,-8.09482 -1.71631,-0.39232 -3.48088,-0.56184 -5.24046,-0.53245 z m 7.54723,24.54442 c -0.25193,1.69103 0.75775,3.94698 -1.09935,4.92101 -2.12487,2.08055 -4.8051,3.99783 -7.922976,3.70764 -2.257666,0.26916 -4.727451,-0.40304 -5.952077,-2.4637 -1.388595,-2.42985 -1.225749,-5.99559 1.10092,-7.81971 1.018218,-1.02176 2.444801,-1.41128 3.774139,-1.82808 3.329464,-0.33428 6.738004,-0.23164 10.099344,-0.35759 0,1.28016 0,2.5603 0,3.84043 z"
       id="path942" />
    <path
       style="fill:#007deb;fill-opacity:1;stroke-width:1.00409"
       d="m 114.53884,366.04667 c -0.98595,0.15886 -2.96687,-0.3025 -2.92483,1.25545 -0.30919,2.68515 -0.25274,5.39684 -0.37689,8.09376 -1.84199,0.25408 -3.93486,-0.11477 -5.65808,0.58727 -0.34415,1.33869 -0.61949,3.04297 0.10649,4.28884 1.68495,0.79955 3.73915,0.24895 5.54898,0.50793 0.22543,8.49606 -0.0544,17.02649 0.63059,25.49969 0.64945,3.48681 3.62858,6.23861 7.14319,6.65668 2.74639,0.28704 5.9293,0.4532 8.24621,-1.28622 0.75691,-1.3639 1.08814,-3.46472 0.0365,-4.73726 -1.31619,-0.24445 -2.51798,0.92549 -3.87019,0.86027 -2.38673,0.47566 -5.0338,-1.15081 -5.34852,-3.66554 -0.89778,-4.46463 -0.33055,-9.09214 -0.50809,-13.62554 0.13887,-3.20823 -0.26114,-6.52227 0.31077,-9.67444 5.8865,-0.25132 11.88377,-0.20671 17.80213,0.0397 0.54368,7.39675 0.22991,14.91763 0.37195,22.36131 0.0952,3.01046 -0.13507,6.13355 0.15894,9.07521 1.88221,0.6794 4.27918,0.97187 5.91803,-0.36644 0.52273,-6.81236 0.18518,-13.68023 0.29136,-20.51347 -0.1341,-4.84976 0.25031,-9.75426 -0.35295,-14.57192 -0.21856,-0.95698 -0.94484,-1.36727 -1.90529,-1.14158 -7.4883,-0.14356 -14.97787,-0.2046 -22.46688,-0.30022 -0.20851,-3.01138 0.0575,-6.14 -0.53558,-9.0882 -0.79354,-0.36713 -1.76693,-0.2137 -2.61788,-0.25527 z"
       id="path944" />
    <path
       style="fill:#007deb;fill-opacity:1;stroke-width:1.00409"
       d="m 138.81182,360.62872 c -1.74928,0.12036 -3.76031,1.19851 -3.63424,3.21037 -0.18562,1.63143 0.18724,4.13026 2.2483,4.27996 1.47167,0.34634 3.17699,0.13761 4.55454,-0.44421 1.10506,-1.63566 1.24658,-4.03643 0.42909,-5.82409 -0.95564,-0.77541 -2.37996,-1.15689 -3.59769,-1.22203 z"
       id="path946" />
    <path
       style="fill:#007deb;fill-opacity:1;stroke-width:1.00409"
       d="m 169.50449,374.87389 c -2.64446,0.10363 -5.46555,0.3447 -7.82808,1.57749 -2.74065,1.0409 -5.0428,3.31312 -6.70418,5.73326 -2.39053,3.95407 -3.14244,8.73448 -3.12737,13.29042 0.37765,5.37818 1.80848,11.36941 6.48233,14.65125 4.77356,3.27702 11.10751,3.73652 16.58063,2.16686 4.56532,-1.33721 8.429,-4.92681 10.13327,-9.36017 1.6246,-3.56629 1.71878,-7.65588 1.59835,-11.51429 -0.39042,-5.63195 -2.58999,-11.88271 -7.97001,-14.54084 -2.81542,-1.44243 -6.01977,-2.02444 -9.16494,-2.00398 z m 0.0183,5.39601 c 2.23163,-0.19486 4.50408,0.19159 6.21088,1.72003 4.25535,3.4004 4.52072,9.41486 4.2356,14.42681 -0.14819,4.09006 -1.89722,8.55898 -5.81416,10.42768 -2.38438,1.36321 -5.32223,0.91892 -7.9283,0.77676 -4.82218,-1.20121 -7.61147,-6.2734 -7.54965,-10.99532 -0.20709,-4.68495 -0.23734,-10.04234 3.24985,-13.65768 1.96532,-2.12207 4.7437,-2.97715 7.59578,-2.69828 z"
       id="path948" />
    <path
       style="fill:#007deb;fill-opacity:1;stroke-width:1.00409"
       d="m 213.60135,374.92085 c -1.51134,-0.13573 -2.91712,0.23376 -4.26848,0.84931 -2.81295,0.93009 -4.93206,3.18781 -7.19175,5.02751 -0.37359,-1.62047 0.28016,-3.50689 -0.44945,-5.03793 -1.55727,-0.85918 -3.7159,-0.845 -5.25456,0.0699 -0.14934,12.04984 0.0639,24.19829 0.0543,36.28601 1.76565,1.05871 4.16078,1.02936 5.93004,-0.0103 0.0462,-8.36453 0.0923,-16.72904 0.13834,-25.09358 2.71054,-3.16762 6.06233,-7.04675 10.63962,-6.72925 2.89736,0.091 5.44727,2.27261 6.07151,5.06769 0.99564,2.06672 0.4759,4.53951 0.72085,6.76034 0.2061,6.71738 0.0441,13.53609 0.40199,20.18845 1.86447,0.81632 4.04197,0.72983 5.81468,-0.1592 -0.0751,-8.54689 0.36051,-17.11153 -0.10753,-25.64796 -0.45535,-4.00574 -2.18174,-8.20698 -5.9337,-10.15884 -1.60995,-0.78221 -3.29694,-1.53223 -5.13701,-1.39978 -0.47611,-0.0151 -0.95256,-0.0148 -1.42884,-0.0122 z"
       id="path950" />
    <path
       style="fill:#007deb;fill-opacity:1;stroke-width:1.00409"
       d="m 248.44087,374.85039 c -4.84214,0.0782 -10.38851,2.59072 -11.69983,7.63701 -0.14185,2.23444 -0.48782,4.66543 0.38525,6.78352 2.1345,4.15518 6.8429,5.67891 10.86776,7.35807 2.57884,1.0591 5.94405,2.66562 5.92167,5.91563 0.24193,2.96778 -2.52592,5.13956 -5.27231,5.36681 -3.57758,0.69985 -7.08984,-0.44596 -10.23361,-2.11304 -0.83965,-0.44091 -2.64117,-1.15687 -2.84485,0.33766 -0.45678,1.93079 0.0621,4.41277 2.17,5.10317 4.01386,1.86937 8.67005,2.30548 12.9845,1.46582 2.30453,-0.56941 4.61513,-1.45182 6.30432,-3.20984 2.21913,-1.96779 3.16552,-4.98076 2.85357,-7.88967 0.4154,-3.99415 -2.87038,-7.16086 -6.25708,-8.64293 -3.66123,-1.98498 -8.53016,-2.44911 -10.91263,-6.23959 -1.07707,-2.56357 0.41908,-6.08856 3.34869,-6.57786 3.45035,-0.78303 7.09774,-0.0571 10.15677,1.68921 0.69939,0.49294 1.93718,0.66709 2.04002,-0.4698 0.40352,-1.82705 -0.009,-4.18263 -2.00713,-4.87976 -2.40931,-1.16496 -5.14357,-1.63242 -7.80511,-1.63441 z"
       id="path952" />
  </g>
</svg>
